<svg width="434" height="84" viewBox="0 0 434 84" fill="none" xmlns="http://www.w3.org/2000/svg">
<path d="M315.338 73.1709L261.3 33.4939C261.075 33.3345 260.809 33.2388 260.532 33.2172C260.255 33.1956 259.977 33.249 259.728 33.3715C259.48 33.494 259.271 33.6809 259.124 33.9118C258.977 34.1426 258.898 34.4086 258.895 34.6806V66.6804C258.895 67.7788 258.667 68.8657 258.225 69.8753C257.782 70.8849 257.135 71.7962 256.322 72.5539C255.509 73.3116 254.548 73.9 253.495 74.2834C252.443 74.6668 251.322 74.8372 250.201 74.7844C245.737 74.5814 242.305 70.8235 242.305 66.4566V15.4797C242.305 12.1538 243.938 8.90592 248.184 7.67236C252.148 6.53248 255.58 8.97879 255.58 8.97879L309.597 48.6662C309.822 48.8315 310.09 48.9321 310.371 48.9569C310.651 48.9816 310.933 48.9295 311.185 48.8063C311.437 48.6831 311.649 48.4937 311.797 48.2593C311.945 48.025 312.023 47.755 312.023 47.4795V15.7296C312.023 11.3574 315.455 7.59949 319.919 7.4017C321.037 7.35113 322.154 7.5224 323.203 7.9052C324.252 8.288 325.21 8.8744 326.021 9.62911C326.832 10.3838 327.478 11.2912 327.921 12.2967C328.364 13.3022 328.594 14.3849 328.598 15.4797V66.6804C328.648 68.1366 328.275 69.577 327.522 70.8338C326.768 72.0906 325.665 73.1123 324.341 73.7799C320.473 75.6849 316.546 74.2691 315.338 73.1709Z" fill="#1C1C1C"/>
<path d="M235.638 15.3806V66.5812C235.638 68.7333 234.764 70.7972 233.208 72.319C231.653 73.8407 229.543 74.6957 227.343 74.6957H205.251C204.128 74.6955 203.017 74.4724 201.985 74.0398C200.953 73.6072 200.021 72.9741 199.247 72.1789C198.472 71.3837 197.87 70.443 197.478 69.4137C197.087 68.3844 196.912 67.288 196.966 66.1908C197.109 64.084 198.07 62.1104 199.654 60.675C201.237 59.2397 203.321 58.4514 205.48 58.472H217.361C217.583 58.4727 217.803 58.4305 218.008 58.3479C218.213 58.2653 218.4 58.1438 218.557 57.9906C218.714 57.8373 218.839 57.6552 218.924 57.4546C219.009 57.2541 219.053 57.0391 219.053 56.822V33.8788C219.051 33.6379 218.981 33.4023 218.851 33.1979C218.721 32.9935 218.535 32.8283 218.315 32.7206C218.095 32.6129 217.848 32.5668 217.603 32.5875C217.358 32.6082 217.123 32.6948 216.925 32.8378L160.29 73.1446C158.509 74.3663 156.309 74.8548 154.164 74.505C152.018 74.1553 150.099 72.9952 148.819 71.2746C147.54 69.554 147.002 67.4107 147.322 65.3062C147.643 63.2017 148.795 61.3044 150.532 60.023L222.464 8.81717C222.464 8.81717 226.646 5.87119 231.105 8.15615C232.462 8.84102 233.602 9.87628 234.402 11.1498C235.201 12.4232 235.628 13.8863 235.638 15.3806Z" fill="#1C1C1C"/>
<path d="M425.707 7.36328C423.507 7.36328 421.398 8.21819 419.842 9.73995C418.286 11.2617 417.412 13.3256 417.412 15.4777V66.6784C417.384 67.7609 417.578 68.838 417.982 69.8462C418.386 70.8544 418.993 71.7732 419.765 72.5486C420.538 73.3239 421.462 73.9401 422.482 74.3608C423.502 74.7816 424.598 74.9983 425.705 74.9983C426.812 74.9983 427.908 74.7816 428.928 74.3608C429.948 73.9401 430.871 73.3239 431.644 72.5486C432.417 71.7732 433.023 70.8544 433.427 69.8462C433.832 68.838 434.025 67.7609 433.997 66.6784V15.4777C433.998 14.4124 433.784 13.3573 433.368 12.3729C432.952 11.3884 432.341 10.4938 431.571 9.74026C430.801 8.9867 429.887 8.38891 428.881 7.98106C427.875 7.57321 426.797 7.36328 425.707 7.36328Z" fill="#1C1C1C"/>
<path d="M149.45 52.2816C150.573 52.2815 151.684 52.0584 152.716 51.6258C153.748 51.1931 154.68 50.5601 155.455 49.7649C156.229 48.9697 156.831 48.029 157.223 46.9997C157.615 45.9704 157.789 44.8739 157.735 43.7768C157.527 39.4099 153.686 36.0527 149.222 36.0527H132.44C132.218 36.0534 131.999 36.0114 131.795 35.929C131.59 35.8467 131.404 35.7256 131.247 35.5728C131.091 35.42 130.966 35.2385 130.881 35.0386C130.797 34.8387 130.753 34.6244 130.753 34.408V25.2369C130.753 24.7993 130.931 24.3797 131.247 24.0702C131.563 23.7608 131.992 23.587 132.44 23.587H180.774C182.932 23.6076 185.017 22.8193 186.6 21.3839C188.183 19.9486 189.145 17.975 189.287 15.8681C189.341 14.7714 189.167 13.6754 188.776 12.6465C188.384 11.6175 187.783 10.677 187.009 9.88193C186.235 9.08682 185.304 8.45363 184.273 8.02071C183.241 7.58779 182.13 7.36414 181.008 7.3633H122.479C121.388 7.36124 120.308 7.56961 119.3 7.97648C118.292 8.38335 117.375 8.98073 116.603 9.73444C115.831 10.4881 115.219 11.3834 114.801 12.3689C114.383 13.3544 114.168 14.4108 114.168 15.4777V66.4494C114.168 70.8215 117.6 74.5794 122.059 74.7772C123.18 74.8301 124.301 74.6596 125.353 74.2762C126.406 73.8928 127.367 73.3044 128.18 72.5467C128.993 71.789 129.64 70.8777 130.082 69.8681C130.525 68.8585 130.753 67.7716 130.753 66.6732V53.9264C130.754 53.4897 130.933 53.0714 131.249 52.7631C131.565 52.4548 131.993 52.2816 132.44 52.2816H149.45Z" fill="#1C1C1C"/>
<path d="M406.813 59.6567L373.861 42.6367C373.684 42.5503 373.535 42.4174 373.431 42.2528C373.327 42.0883 373.271 41.8985 373.271 41.705C373.271 41.5114 373.327 41.3217 373.431 41.1571C373.535 40.9926 373.684 40.8596 373.861 40.7733L406.988 22.603C408.884 21.5907 410.311 19.9066 410.976 17.8968C411.641 15.887 411.493 13.7044 410.564 11.7976C410.063 10.8149 409.362 9.94189 408.506 9.23159C407.65 8.52128 406.655 7.98842 405.582 7.66529C404.509 7.34216 403.38 7.23549 402.263 7.35173C401.147 7.46797 400.066 7.80471 399.087 8.34154L350.667 34.8866C348.007 36.448 346.315 38.9776 346.315 41.9444C346.317 43.4362 346.742 44.8982 347.542 46.1681C348.342 47.4379 349.487 48.4658 350.848 49.1376L399.268 74.1211C403.913 76.1354 409.095 74.2877 410.622 70.4465C412.251 66.345 410.771 61.7074 406.813 59.6567Z" fill="#1C1C1C"/>
<path d="M342.888 41.6129C342.888 35.7887 347.299 32.6709 349.805 31.2968C350.287 31.0369 350.689 30.6557 350.97 30.1926C351.25 29.7295 351.399 29.2015 351.401 28.6631V15.6248C351.422 13.5109 350.614 11.4696 349.143 9.92057C347.673 8.37157 345.651 7.43268 343.494 7.29699C342.373 7.24415 341.252 7.4146 340.2 7.79801C339.148 8.18142 338.186 8.76981 337.373 9.52752C336.56 10.2852 335.913 11.1965 335.471 12.2061C335.029 13.2157 334.8 14.3026 334.8 15.401V66.4403C334.8 70.8125 338.232 74.5704 342.691 74.7682C343.813 74.821 344.933 74.6506 345.986 74.2672C347.038 73.8838 348 73.2954 348.812 72.5377C349.625 71.78 350.273 70.8687 350.715 69.8591C351.157 68.8495 351.385 67.7625 351.385 66.6642V55.2134C351.38 54.6687 351.223 54.1358 350.932 53.6718C350.64 53.2078 350.225 52.8302 349.73 52.5797C347.267 51.2837 342.888 48.0722 342.888 41.6129Z" fill="#1C1C1C"/>
<rect width="83.3993" height="83.3993" rx="17.0037" fill="#1C1C1C"/>
<path d="M63.7543 53.353L43.4023 42.8512C43.2929 42.7979 43.2009 42.7159 43.1366 42.6143C43.0723 42.5128 43.0382 42.3957 43.0382 42.2763C43.0382 42.1569 43.0723 42.0398 43.1366 41.9383C43.2009 41.8367 43.2929 41.7547 43.4023 41.7014L63.8628 30.4898C65.0334 29.8652 65.9147 28.8261 66.3255 27.586C66.7362 26.3459 66.6452 24.9991 66.0711 23.8226C65.7615 23.2162 65.3292 22.6776 64.8003 22.2393C64.2714 21.801 63.6569 21.4722 62.9942 21.2729C62.3314 21.0735 61.6341 21.0077 60.9446 21.0794C60.255 21.1511 59.5876 21.3589 58.9826 21.6901L29.0774 38.0692C27.4342 39.0326 26.3892 40.5934 26.3892 42.424C26.3903 43.3445 26.6526 44.2466 27.1469 45.0301C27.6412 45.8137 28.3481 46.4479 29.1891 46.8624L59.0944 62.278C61.9633 63.5209 65.1641 62.3807 66.1073 60.0106C67.1129 57.4799 66.1993 54.6184 63.7543 53.353Z" fill="white"/>
<path d="M24.3279 42.2779C24.3279 38.6762 26.9975 36.7482 28.5142 35.8985C28.8059 35.7378 29.0493 35.502 29.2192 35.2157C29.389 34.9293 29.4792 34.6027 29.4803 34.2698V26.207C29.4929 24.8998 29.0039 23.6374 28.1138 22.6795C27.2237 21.7216 26.0003 21.141 24.695 21.0571C24.0162 21.0244 23.3379 21.1298 22.7011 21.3669C22.0642 21.604 21.4822 21.9679 20.9902 22.4364C20.4982 22.905 20.1065 23.4685 19.8389 24.0929C19.5712 24.7172 19.4332 25.3893 19.4331 26.0686V57.6311C19.4331 60.3348 21.5102 62.6587 24.2088 62.781C24.8875 62.8137 25.5659 62.7083 26.2027 62.4712C26.8395 62.2341 27.4216 61.8702 27.9136 61.4017C28.4055 60.9331 28.7972 60.3696 29.0649 59.7452C29.3325 59.1209 29.4706 58.4487 29.4707 57.7695V50.6884C29.4675 50.3516 29.3726 50.022 29.1961 49.7351C29.0197 49.4481 28.7684 49.2147 28.4692 49.0597C26.9782 48.2583 24.3279 46.2723 24.3279 42.2779Z" fill="white"/>
</svg>
