<svg width="202" height="228" viewBox="0 0 202 228" fill="none" xmlns="http://www.w3.org/2000/svg">
<rect x="18" width="165" height="165" rx="33.6408" fill="#1C1C1C"/>
<path d="M144.134 105.559L103.868 84.7821C103.652 84.6767 103.47 84.5144 103.343 84.3135C103.215 84.1126 103.148 83.881 103.148 83.6447C103.148 83.4084 103.215 83.1768 103.343 82.9759C103.47 82.775 103.652 82.6128 103.868 82.5074L144.348 60.3259C146.664 59.0902 148.408 57.0343 149.22 54.5809C150.033 52.1274 149.853 49.463 148.717 47.1353C148.105 45.9356 147.249 44.8699 146.203 44.0028C145.156 43.1357 143.941 42.4852 142.63 42.0908C141.318 41.6963 139.939 41.5661 138.575 41.708C137.21 41.8499 135.89 42.261 134.693 42.9163L75.5274 75.3211C72.2765 77.2273 70.209 80.3153 70.209 83.937C70.2113 85.7581 70.7303 87.5428 71.7082 89.093C72.6861 90.6432 74.0847 91.898 75.7485 92.7181L134.914 123.217C140.59 125.676 146.923 123.42 148.789 118.731C150.778 113.724 148.971 108.063 144.134 105.559Z" fill="white"/>
<path d="M66.1308 83.6479C66.1308 76.5222 71.4124 72.7077 74.4132 71.0266C74.9903 70.7086 75.4718 70.2422 75.8079 69.6757C76.144 69.1091 76.3223 68.463 76.3245 67.8044V51.8526C76.3494 49.2663 75.3819 46.7688 73.6209 44.8737C71.86 42.9785 69.4395 41.8298 66.8571 41.6638C65.5142 41.5992 64.1721 41.8077 62.9122 42.2768C61.6523 42.7459 60.5008 43.4658 59.5274 44.3928C58.5541 45.3198 57.7791 46.4347 57.2496 47.6699C56.7201 48.9051 56.4469 50.235 56.4468 51.5788V114.023C56.4468 119.372 60.5561 123.97 65.8951 124.212C67.238 124.277 68.5801 124.068 69.84 123.599C71.0999 123.13 72.2514 122.41 73.2248 121.483C74.1981 120.556 74.9731 119.441 75.5026 118.206C76.0321 116.971 76.3053 115.641 76.3054 114.297V100.287C76.2991 99.6211 76.1114 98.9691 75.7623 98.4014C75.4132 97.8337 74.916 97.3718 74.324 97.0653C71.3742 95.4796 66.1308 91.5506 66.1308 83.6479Z" fill="white"/>
<path d="M127.054 226.083L92.9248 201.024C92.7825 200.923 92.6147 200.863 92.4396 200.849C92.2645 200.836 92.089 200.869 91.9322 200.947C91.7754 201.024 91.6434 201.142 91.5506 201.288C91.4577 201.434 91.4077 201.602 91.4059 201.774V221.984C91.4058 222.678 91.2617 223.364 90.9824 224.002C90.7031 224.639 90.2943 225.215 89.7809 225.694C89.2675 226.172 88.6601 226.544 87.9956 226.786C87.331 227.028 86.6231 227.136 85.9148 227.102C83.0953 226.974 80.9277 224.601 80.9277 221.843V189.647C80.9277 187.546 81.9594 185.495 84.6411 184.716C87.1447 183.996 89.3123 185.541 89.3123 185.541L123.428 210.607C123.571 210.711 123.74 210.775 123.917 210.79C124.094 210.806 124.272 210.773 124.431 210.695C124.59 210.617 124.724 210.498 124.818 210.35C124.911 210.202 124.961 210.031 124.961 209.857V189.804C124.961 187.043 127.128 184.67 129.948 184.545C130.654 184.513 131.359 184.621 132.022 184.863C132.684 185.104 133.289 185.475 133.801 185.951C134.313 186.428 134.722 187.001 135.001 187.636C135.281 188.271 135.426 188.955 135.429 189.647V221.984C135.461 222.904 135.225 223.813 134.749 224.607C134.273 225.401 133.577 226.046 132.74 226.468C130.297 227.671 127.817 226.777 127.054 226.083Z" fill="#131A22"/>
<path d="M76.717 189.582V221.919C76.717 223.279 76.165 224.582 75.1825 225.543C74.2 226.504 72.8674 227.044 71.4779 227.044H57.525C56.8158 227.044 56.1141 226.903 55.4622 226.63C54.8104 226.357 54.222 225.957 53.7328 225.455C53.2436 224.953 52.8637 224.358 52.6161 223.708C52.3686 223.058 52.2585 222.366 52.2927 221.673C52.3827 220.342 52.99 219.096 53.9898 218.189C54.9897 217.283 56.3063 216.785 57.6695 216.798H65.1736C65.3137 216.798 65.4526 216.772 65.5823 216.719C65.7119 216.667 65.8297 216.591 65.929 216.494C66.0283 216.397 66.1071 216.282 66.1608 216.155C66.2145 216.029 66.2422 215.893 66.2422 215.756V201.265C66.241 201.113 66.1968 200.964 66.1145 200.835C66.0322 200.706 65.9151 200.602 65.776 200.534C65.6369 200.466 65.4813 200.437 65.3263 200.45C65.1714 200.463 65.0231 200.517 64.898 200.608L29.1285 226.065C28.0038 226.836 26.6143 227.145 25.2592 226.924C23.9041 226.703 22.692 225.97 21.8838 224.884C21.0757 223.797 20.7362 222.443 20.9385 221.114C21.1408 219.785 21.8686 218.587 22.9653 217.777L68.3963 185.437C68.3963 185.437 71.0377 183.576 73.8538 185.019C74.7113 185.452 75.4313 186.106 75.936 186.91C76.4407 187.714 76.7108 188.638 76.717 189.582Z" fill="#131A22"/>
<path d="M196.761 184.522C195.371 184.522 194.039 185.062 193.056 186.024C192.074 186.985 191.522 188.288 191.522 189.647V221.985C191.504 222.669 191.626 223.349 191.882 223.986C192.137 224.622 192.52 225.203 193.008 225.692C193.496 226.182 194.079 226.571 194.724 226.837C195.368 227.103 196.06 227.24 196.759 227.24C197.458 227.24 198.15 227.103 198.795 226.837C199.439 226.571 200.022 226.182 200.51 225.692C200.998 225.203 201.381 224.622 201.637 223.986C201.892 223.349 202.014 222.669 201.996 221.985V189.647C201.997 188.975 201.862 188.308 201.599 187.686C201.336 187.065 200.95 186.5 200.464 186.024C199.978 185.548 199.401 185.17 198.765 184.913C198.13 184.655 197.449 184.522 196.761 184.522Z" fill="#131A22"/>
<path d="M22.2837 212.892C22.9928 212.892 23.6946 212.751 24.3465 212.478C24.9983 212.205 25.5867 211.805 26.0759 211.303C26.5651 210.8 26.945 210.206 27.1925 209.556C27.4401 208.906 27.5501 208.213 27.516 207.521C27.385 204.763 24.9586 202.642 22.1392 202.642H11.5401C11.4003 202.643 11.2619 202.616 11.1326 202.564C11.0034 202.512 10.886 202.436 10.787 202.339C10.688 202.243 10.6095 202.128 10.5559 202.002C10.5023 201.875 10.4748 201.74 10.4748 201.603V195.811C10.4748 195.535 10.587 195.27 10.7868 195.074C10.9866 194.879 11.2575 194.769 11.5401 194.769H42.0671C43.4303 194.782 44.7469 194.284 45.7468 193.378C46.7466 192.471 47.3539 191.225 47.4439 189.894C47.4781 189.201 47.3681 188.509 47.1208 187.859C46.8734 187.209 46.4938 186.615 46.005 186.113C45.5161 185.611 44.9282 185.211 44.2767 184.938C43.6253 184.664 42.9239 184.523 42.215 184.522H5.24915C4.56029 184.521 3.87794 184.653 3.24115 184.91C2.60435 185.167 2.02561 185.544 1.53805 186.02C1.05049 186.496 0.66368 187.061 0.399762 187.684C0.135845 188.306 -1.27539e-06 188.974 0 189.647L0 221.84C0 224.601 2.16754 226.975 4.98366 227.1C5.69201 227.133 6.39992 227.026 7.06448 226.783C7.72904 226.541 8.33643 226.17 8.84984 225.691C9.36325 225.213 9.77199 224.637 10.0513 223.999C10.3306 223.362 10.4747 222.675 10.4748 221.981V213.931C10.4757 213.655 10.5883 213.391 10.788 213.196C10.9877 213.001 11.2581 212.892 11.5401 212.892H22.2837Z" fill="#131A22"/>
<path d="M184.827 217.544L164.016 206.795C163.904 206.74 163.81 206.656 163.744 206.552C163.678 206.448 163.643 206.328 163.643 206.206C163.643 206.084 163.678 205.964 163.744 205.86C163.81 205.756 163.904 205.672 164.016 205.618L184.938 194.142C186.135 193.502 187.037 192.439 187.457 191.169C187.877 189.9 187.784 188.521 187.197 187.317C186.88 186.697 186.438 186.145 185.897 185.697C185.356 185.248 184.728 184.911 184.05 184.707C183.372 184.503 182.659 184.436 181.954 184.509C181.249 184.583 180.567 184.795 179.948 185.134L149.367 201.9C147.687 202.886 146.618 204.484 146.618 206.357C146.619 207.3 146.888 208.223 147.393 209.025C147.898 209.827 148.621 210.476 149.481 210.9L180.062 226.68C182.996 227.952 186.269 226.785 187.234 224.359C188.262 221.768 187.328 218.839 184.827 217.544Z" fill="#131A22"/>
<path d="M144.457 206.15C144.457 202.471 147.243 200.502 148.825 199.634C149.13 199.47 149.384 199.23 149.561 198.937C149.738 198.645 149.832 198.311 149.833 197.971V189.736C149.847 188.401 149.336 187.112 148.407 186.134C147.479 185.155 146.202 184.562 144.84 184.477C144.131 184.443 143.423 184.551 142.759 184.793C142.094 185.035 141.487 185.407 140.974 185.885C140.46 186.364 140.051 186.939 139.772 187.577C139.493 188.215 139.349 188.901 139.349 189.595V221.83C139.349 224.592 141.516 226.965 144.332 227.09C145.041 227.124 145.749 227.016 146.413 226.774C147.078 226.532 147.685 226.16 148.198 225.681C148.712 225.203 149.121 224.627 149.4 223.99C149.679 223.352 149.823 222.666 149.823 221.972V214.74C149.82 214.396 149.721 214.059 149.537 213.766C149.353 213.473 149.09 213.235 148.778 213.076C147.222 212.258 144.457 210.23 144.457 206.15Z" fill="#131A22"/>
</svg>
